<svg height="800" viewBox="0 0 32 32" width="800" xmlns="http://www.w3.org/2000/svg"><path d="m20.992 20.163c-1.511-.099-2.699-1.349-2.699-2.877 0-.051.001-.102.004-.153v.007c-.003-.048-.005-.104-.005-.161 0-1.525 1.19-2.771 2.692-2.862h.008c1.509.082 2.701 1.325 2.701 2.847 0 .062-.002.123-.006.184v-.008c.003.05.005.109.005.168 0 1.523-1.191 2.768-2.693 2.854h-.008zm-9.966 0c-1.511-.099-2.699-1.349-2.699-2.877 0-.051.001-.102.004-.153v.007c-.003-.048-.005-.104-.005-.161 0-1.525 1.19-2.771 2.692-2.862h.008c1.509.082 2.701 1.325 2.701 2.847 0 .062-.002.123-.006.184v-.008c.003.048.005.104.005.161 0 1.525-1.19 2.771-2.692 2.862zm15.367-13.698c-1.763-.832-3.811-1.49-5.955-1.871l-.149-.022c-.005-.001-.011-.002-.017-.002-.035 0-.065.019-.081.047-.234.411-.488.924-.717 1.45l-.043.111c-1.03-.165-2.218-.259-3.428-.259s-2.398.094-3.557.275l.129-.017c-.27-.63-.528-1.142-.813-1.638l.041.077c-.017-.029-.048-.047-.083-.047-.005 0-.011 0-.016.001h.001c-2.293.403-4.342 1.06-6.256 1.957l.151-.064c-.017.007-.031.019-.04.034-2.854 4.041-4.562 9.069-4.562 14.496 0 .907.048 1.802.141 2.684l-.009-.11c.003.029.018.053.039.07 2.14 1.601 4.628 2.891 7.313 3.738l.176.048c.008.003.018.004.028.004.032 0 .06-.015.077-.038.535-.72 1.044-1.536 1.485-2.392l.047-.1c.006-.012.01-.027.01-.043 0-.041-.026-.075-.062-.089h-.001c-.912-.352-1.683-.727-2.417-1.157l.077.042c-.029-.017-.048-.048-.048-.083 0-.031.015-.059.038-.076.157-.118.315-.24.465-.364.016-.013.037-.021.059-.021.014 0 .027.003.038.008h-.001c2.208 1.061 4.8 1.681 7.536 1.681s5.329-.62 7.643-1.727l-.107.046c.012-.006.025-.009.04-.009.022 0 .043.008.059.021.15.124.307.248.466.365.023.018.038.046.038.077 0 .035-.019.065-.046.082-.661.395-1.432.769-2.235 1.078l-.105.036c-.036.014-.062.049-.062.089 0 .016.004.031.011.044v-.001c.501.96 1.009 1.775 1.571 2.548l-.04-.057c.017.024.046.04.077.04.01 0 .02-.002.029-.004h-.001c2.865-.892 5.358-2.182 7.566-3.832l-.065.047c.022-.016.036-.041.039-.069.087-.784.136-1.694.136-2.615 0-5.415-1.712-10.43-4.623-14.534l.052.078c-.008-.016-.022-.029-.038-.036z"/></svg>