<svg clip-rule="evenodd" fill-rule="evenodd" height="1038" image-rendering="optimizeQuality" shape-rendering="geometricPrecision" text-rendering="geometricPrecision" width="1038" xmlns="http://www.w3.org/2000/svg"><path d="m673.5 157.5c-1.765.315-3.431.315-5 0-6.29-8.292-12.957-16.292-20-24-.992-1.526-2.492-2.193-4.5-2-18.143 1.978-36.31 3.644-54.5 5-2.155-.128-4.155.372-6 1.5-30.503.168-60.836.668-91 1.5-.667 0-1.333 0-2 0-3.958-.249-7.624.418-11 2-1 0-2 0-3 0-1.43.079-2.764-.254-4-1-1.196.346-1.196.846 0 1.5-33.833.448-67.833.615-102 .5-5.676-.166-11.343.001-17 .5-.5.5-1 1-1.5 1.5-.179 3.525-.679 6.859-1.5 10-.722.418-1.222 1.084-1.5 2-.198-1.882-.698-3.548-1.5-5-.889-5.597 1.111-9.763 6-12.5 38.245 1.419 76.578 1.753 115 1 8.119-2.379 16.452-4.046 25-5 30.667-.333 61.333-.667 92-1 6.603-1.041 13.27-2.041 20-3 13.258.471 26.092-1.029 38.5-4.5 5.948.938 10.615 3.938 14 9 4.93 7.538 10.097 14.871 15.5 22z" fill="#f3f3f3" opacity=".03"/><path d="m648.5 133.5c-1.098.897-1.098 1.73 0 2.5-2.715-1.148-4.715-.315-6 2.5-2.235-.295-4.235.039-6 1-11.817.934-23.484 1.934-35 3-5.845-.349-11.512.484-17 2.5-31.696.189-63.363.689-95 1.5-5.597.27-10.93 1.27-16 3-37.01.252-74.01-.081-111-1 .219 1.175-.114 2.175-1 3-1.601.665-3.101.999-4.5 1-.47 1.077-.303 2.077.5 3-.667 1.333-1.333 2.667-2 4-1.29-.558-2.123-1.558-2.5-3-.342 2.119-1.175 2.453-2.5 1 0-1 0-2 0-3 .821-3.141 1.321-6.475 1.5-10l1.5-1.5c5.657-.499 11.324-.666 17-.5 34.164 1.164 68.498 1.331 103 .5 1.237-.232 2.237-.732 3-1.5h3c3.887-.146 7.554-.813 11-2h2c30.668.167 61.335 0 92-.5 1.991-.374 3.658-1.207 5-2.5 18.19-1.356 36.357-3.022 54.5-5 2.008-.193 3.508.474 4.5 2z" fill="#101010" opacity=".833"/><path d="m589.5 136.5c-1.342 1.293-3.009 2.126-5 2.5-30.665.5-61.332.667-92 .5 30.164-.832 60.497-1.332 91-1.5 1.845-1.128 3.845-1.628 6-1.5z" fill="#2e2e2e" opacity=".4"/><path d="m490.5 139.5c-3.446 1.187-7.113 1.854-11 2 3.376-1.582 7.042-2.249 11-2z" fill="#787878" opacity=".369"/><path d="m642.5 138.5c1.89-.203 3.39.463 4.5 2 12.281 17.282 24.948 34.282 38 51 .333 4 .667 8 1 12 4.283 5.921 6.283 12.587 6 20 1.845 2.367 3.011 5.033 3.5 8-.166 4.014.001 8.014.5 12 .383.556.883.889 1.5 1 2.469 2.644 4.802 5.477 7 8.5 7.644 3.767 13.144 9.601 16.5 17.5 2.371 2.706 5.037 5.039 8 7 2.451 4.783 4.451 9.783 6 15 4.174 7.016 8.841 13.683 14 20 2.377 3.421 4.21 7.088 5.5 11-4.249 2.614-8.915 4.448-14 5.5-10.434.907-20.767.24-31-2-6.659-1.61-13.325-3.11-20-4.5-23.83-1.163-47.83-1.33-72-.5-.916.278-1.582.778-2 1.5-.667 0-1.333 0-2 0-6.003-.167-11.67.833-17 3-6.64.218-12.973 1.718-19 4.5-16 .667-32 .667-48 0-7.678-1.917-15.512-2.75-23.5-2.5-6.414-.211-12.581.455-18.5 2-15.004-.167-30.004 0-45 .5-1.654.608-3.321 1.108-5 1.5-.109-5.628-1.276-10.962-3.5-16-.169-7.024-.669-14.024-1.5-21-1.9-2.116-4.233-3.449-7-4-.761-.891-1.761-1.558-3-2-.667-6-1.333-12-2-18-1.315-1.816-2.815-3.483-4.5-5-3.718-9.771-7.718-19.438-12-29-2.068-1.896-3.901-3.896-5.5-6 .374-4.147-.626-7.814-3-11-4.467-4.758-7.8-10.258-10-16.5-3.369-8.635-6.202-17.468-8.5-26.5-5.856-8.711-10.356-18.044-13.5-28 36.824 1.277 73.491 1.277 110 0 5.684.239 11.018-.761 16-3 31.637-.811 63.304-1.311 95-1.5 5.488-2.016 11.155-2.849 17-2.5 11.927.36 23.594-.64 35-3 1.765-.961 3.765-1.295 6-1z" fill="#fdfdfd"/><path d="m636.5 139.5c-11.406 2.36-23.073 3.36-35 3 11.516-1.066 23.183-2.066 35-3z" fill="#bdbdbd"/><path d="m476.5 141.5c-.763.768-1.763 1.268-3 1.5-34.502.831-68.836.664-103-.5 34.167.115 68.167-.052 102-.5-1.196-.654-1.196-1.154 0-1.5 1.236.746 2.57 1.079 4 1z" fill="#d2d2d2" opacity=".078"/><path d="m489.5 146.5c-4.982 2.239-10.316 3.239-16 3 5.07-1.73 10.403-2.73 16-3z" fill="#ababab"/><path d="m357.5 155.5c3.943 6.222 7.109 12.889 9.5 20 1.333 1.333 2.667 2.667 4 4 3.251 12.348 7.418 24.348 12.5 36-.609 3.378.724 5.378 4 6 .958.453 1.792 1.119 2.5 2 .34 7.014 3.006 13.014 8 18 3.817 8.266 7.483 16.6 11 25 1.271 2.933 2.938 5.599 5 8 .333 5.333.667 10.667 1 16 1.191 3.034 3.358 4.701 6.5 5 1.462 1.755 3.295 3.088 5.5 4-.274 12.482 1.226 24.649 4.5 36.5-2.009 6.221-4.176 12.387-6.5 18.5-3.25 14.083-7.917 27.75-14 41-.853 3.969-1.519 7.969-2 12-5.088 14.767-9.421 29.767-13 45-2.965 5.131-6.131 10.131-9.5 15-.651.591-1.318 1.257-2 2-9.08-12.492-17.913-25.159-26.5-38-5.989-6.64-10.989-13.973-15-22-4.343-5.509-9.176-10.509-14.5-15-1.167-2.333-2.333-4.667-3.5-7-1.203-13.112-6.203-24.445-15-34-5.497-8.673-8.164-18.007-8-28 6.595-5.091 10.428-11.758 11.5-20 1.268-2.405 1.935-5.072 2-8-.172-.992.162-1.658 1-2 2.271-2.112 3.604-4.779 4-8 5.791-10.313 10.958-20.979 15.5-32 .79-15.572 2.29-31.072 4.5-46.5 4.343-6.192 7.51-13.026 9.5-20.5.333-3 .667-6 1-9 3.706-6.157 5.206-12.824 4.5-20 .667-1.333 1.333-2.667 2-4z" fill="#fcfcfc"/><path d="m648.5 133.5c7.043 7.708 13.71 15.708 20 24 7.622 11.779 15.788 23.112 24.5 34 .682 2.438.182 4.605-1.5 6.5 4.386 6.828 6.552 14.328 6.5 22.5 2.072 2.955 3.405 6.288 4 10 .333 3.667.667 7.333 1 11 5.221 5.023 10.721 9.689 16.5 14 2.671 3.337 4.837 7.004 6.5 11 2.703 3.038 5.703 5.705 9 8 2.333 5.333 4.667 10.667 7 16 3.419 3.831 6.086 8.165 8 13 3.451 3.456 6.118 7.456 8 12 1.704 1.873 3.537 3.54 5.5 5 .863 1.921 1.529 3.921 2 6-1.431-1.403-2.598-3.069-3.5-5-.492 1.049-.326 2.049.5 3-2.935 1.398-5.602 1.065-8-1-1.29-3.912-3.123-7.579-5.5-11-5.159-6.317-9.826-12.984-14-20-1.549-5.217-3.549-10.217-6-15-2.963-1.961-5.629-4.294-8-7-3.356-7.899-8.856-13.733-16.5-17.5-2.198-3.023-4.531-5.856-7-8.5-.551-4.473-1.217-8.807-2-13-.489-2.967-1.655-5.633-3.5-8 .283-7.413-1.717-14.079-6-20-.333-4-.667-8-1-12-13.052-16.718-25.719-33.718-38-51-1.11-1.537-2.61-2.203-4.5-2 1.285-2.815 3.285-3.648 6-2.5-1.098-.77-1.098-1.603 0-2.5z" fill="#131313" opacity=".924"/><path d="m383.5 215.5c.877 2.228 2.21 4.228 4 6-3.276-.622-4.609-2.622-4-6z" fill="#999"/><path d="m473.5 149.5c-36.509 1.277-73.176 1.277-110 0 3.144 9.956 7.644 19.289 13.5 28 2.298 9.032 5.131 17.865 8.5 26.5 2.2 6.242 5.533 11.742 10 16.5.13 4.025 1.13 7.691 3 11 1.599 2.104 3.432 4.104 5.5 6 4.282 9.562 8.282 19.229 12 29 1.685 1.517 3.185 3.184 4.5 5 .667 6 1.333 12 2 18 1.239.442 2.239 1.109 3 2-2 .667-3.333 2-4 4-3.142-.299-5.309-1.966-6.5-5-.333-5.333-.667-10.667-1-16-2.062-2.401-3.729-5.067-5-8-3.517-8.4-7.183-16.734-11-25-4.994-4.986-7.66-10.986-8-18-.708-.881-1.542-1.547-2.5-2-1.79-1.772-3.123-3.772-4-6-5.082-11.652-9.249-23.652-12.5-36-1.333-1.333-2.667-2.667-4-4-2.391-7.111-5.557-13.778-9.5-20-.803-.923-.97-1.923-.5-3 1.399-.001 2.899-.335 4.5-1 .886-.825 1.219-1.825 1-3 36.99.919 73.99 1.252 111 1z" fill="#171717"/><path d="m395.5 220.5c2.374 3.186 3.374 6.853 3 11-1.87-3.309-2.87-6.975-3-11z" fill="#525252"/><path d="m695.5 231.5c.783 4.193 1.449 8.527 2 13-.617-.111-1.117-.444-1.5-1-.499-3.986-.666-7.986-.5-12z" fill="#7a7a7a"/><path d="m673.5 157.5c9.021 10.867 17.521 22.2 25.5 34 .895 2.966.395 5.633-1.5 8 3.958 7.139 6.124 14.805 6.5 23 3.03 5.138 4.363 10.804 4 17 6.257 4.752 12.09 10.085 17.5 16 3.569 6.736 8.402 12.403 14.5 17 2.333 5.667 4.667 11.333 7 17 6.724 9.216 13.224 18.55 19.5 28-.722.418-1.222 1.084-1.5 2-1.107-1.212-1.607-.879-1.5 1-1.963-1.46-3.796-3.127-5.5-5-1.882-4.544-4.549-8.544-8-12-1.914-4.835-4.581-9.169-8-13-2.333-5.333-4.667-10.667-7-16-3.297-2.295-6.297-4.962-9-8-1.663-3.996-3.829-7.663-6.5-11-5.779-4.311-11.279-8.977-16.5-14-.333-3.667-.667-7.333-1-11-.595-3.712-1.928-7.045-4-10 .052-8.172-2.114-15.672-6.5-22.5 1.682-1.895 2.182-4.062 1.5-6.5-8.712-10.888-16.878-22.221-24.5-34 1.569.315 3.235.315 5 0z" fill="#ededed" opacity=".066"/><path d="m320.5 287.5c-.396 3.221-1.729 5.888-4 8 .779-3.045 2.113-5.711 4-8z" fill="#878787"/><path d="m425.5 291.5c2.767.551 5.1 1.884 7 4 .831 6.976 1.331 13.976 1.5 21 2.224 5.038 3.391 10.372 3.5 16 1.935 1.209 3.935 1.042 6-.5 14.839-.169 29.506-.669 44-1.5 5.919-1.545 12.086-2.211 18.5-2 7.988-.25 15.822.583 23.5 2.5 16 .667 32 .667 48 0 6.027-2.782 12.36-4.282 19-4.5 5.886-.48 11.552-1.48 17-3h2c24.651-.919 49.318-1.252 74-1 6.675 1.39 13.341 2.89 20 4.5 10.233 2.24 20.566 2.907 31 2 5.085-1.052 9.751-2.886 14-5.5 2.398 2.065 5.065 2.398 8 1-.826-.951-.992-1.951-.5-3 .902 1.931 2.069 3.597 3.5 5 4.617 4.652 6.95 10.318 7 17 .418 6.169 1.085 12.169 2 18 .284 13.824 1.784 27.491 4.5 41 1.059 3.118 2.392 6.118 4 9 1.377 25.321 1.71 50.654 1 76-1.302 9.415-3.135 18.749-5.5 28-2.516 11.727-3.516 23.727-3 36-.824 3.264-1.158 6.598-1 10-1.263 4.571-2.596 9.238-4 14v2c-1.54 2.338-2.206 5.005-2 8-.495 1.982-.995 3.982-1.5 6-.333 22-.667 44-1 66-1.134 16.542-2.134 33.209-3 50-3.44 13.636-6.773 27.303-10 41-1.634 2.98-3.3 5.98-5 9-.952 5.76-2.285 11.426-4 17-5.009 4.498-7.843 10.165-8.5 17-2.753 3.458-4.087 7.458-4 12-1.493 9.436-1.159 18.769 1 28 .45 7.149-.216 14.149-2 21-8.771 5.262-16.771 11.762-24 19.5-3.844 2.422-7.51 5.089-11 8-4.919 1.461-9.586 3.461-14 6-8.437 1.272-16.437 3.439-24 6.5-3.216-.155-5.883.845-8 3-5.219 1.806-10.553 3.306-16 4.5-9.545 4.732-19.212 9.065-29 13-2.333.667-4.667.667-7 0-3-2.003-6.333-2.836-10-2.5-1.602-1.574-3.602-2.241-6-2-12.928-5.573-26.595-9.073-41-10.5-12.725-4.378-25.725-7.544-39-9.5-6.479-1.098-13.146-1.765-20-2-.667 0-1.333 0-2 0-2.28-1.723-4.947-2.389-8-2-5.083-1.578-10.416-2.245-16-2-18.668-2.571-37.334-2.571-56 0-3.309-.95-6.642-1.95-10-3-2.405-1.268-5.072-1.935-8-2-2.264-.719-4.597-1.052-7-1-2.015-1.424-4.348-2.09-7-2-5.581-.582-10.914-2.082-16-4.5-7.115-.283-14.115-1.283-21-3-1.172-.419-2.172-1.085-3-2-5.474-.147-10.807-.98-16-2.5-1.1-1.058-2.434-1.892-4-2.5.667-.333 1.333-.667 2-1-2.694.612-5.36.445-8-.5-4.865-3.517-10.198-6.183-16-8-7.683-8.516-15.849-16.516-24.5-24-7.214-7.466-8.381-15.8-3.5-25 1.29-3.142 2.29-6.475 3-10 3.677-9.844 9.51-18.177 17.5-25 2.19-4.863 5.19-9.196 9-13 1.446-5.14 3.779-9.806 7-14 .953-2.932 1.453-5.932 1.5-9 2.1-4.123 3.766-8.456 5-13 3.177-7.019 6.344-14.019 9.5-21 1.76-5.223 3.093-10.556 4-16 1-1.333 2-2.667 3-4 2.435-11.819 3.769-23.819 4-36 5.631-10.979 11.298-21.979 17-33 3.388-15.096 7.055-30.096 11-45 .999-3.332 2.499-6.332 4.5-9 2.879-3.795 4.713-8.129 5.5-13 1-6.333 2-12.667 3-19 2-5.333 4-10.667 6-16 1.584-4.175 3.918-7.841 7-11 2.18-4.668 4.013-9.334 5.5-14 .368-3.745 1.868-7.079 4.5-10l1 1c.49-1.293.657-2.627.5-4 3.369-4.869 6.535-9.869 9.5-15 3.579-15.233 7.912-30.233 13-45 .481-4.031 1.147-8.031 2-12 6.083-13.25 10.75-26.917 14-41 2.324-6.113 4.491-12.279 6.5-18.5-3.274-11.851-4.774-24.018-4.5-36.5-2.205-.912-4.038-2.245-5.5-4 .667-2 2-3.333 4-4z" opacity=".998"/><path d="m315.5 297.5c-.065 2.928-.732 5.595-2 8-.206-2.995.46-5.662 2-8z" fill="#818181"/><path d="m689.5 322.5c-24.682-.252-49.349.081-74 1 .418-.722 1.084-1.222 2-1.5 24.17-.83 48.17-.663 72 .5z" fill="#444"/><path d="m613.5 323.5c-5.448 1.52-11.114 2.52-17 3 5.33-2.167 10.997-3.167 17-3z" fill="#515151"/><path d="m487.5 330.5c-14.494.831-29.161 1.331-44 1.5-2.065 1.542-4.065 1.709-6 .5 1.679-.392 3.346-.892 5-1.5 14.996-.5 29.996-.667 45-.5z" fill="#828282"/><path d="m296.5 339.5c1.574 1.602 2.241 3.602 2 6-1.574-1.602-2.241-3.602-2-6z" fill="#7b7b7b" opacity=".439"/><path d="m772.5 343.5c.768.763 1.268 1.763 1.5 3 .499 4.989.666 9.989.5 15-.915-5.831-1.582-11.831-2-18z" fill="#989898" opacity=".486"/><path d="m347.5 151.5c.802 1.452 1.302 3.118 1.5 5 .278-.916.778-1.582 1.5-2v3c-3.39 12.499-6.556 25.166-9.5 38-1.075 2.696-2.908 4.696-5.5 6-.514 3.144-1.347 6.144-2.5 9-.673 15.086-2.006 30.086-4 45-5.435 11.981-11.435 23.648-18 35-2.63 6.812-4.63 13.812-6 21-2.442 3.229-5.108 6.229-8 9-1.746 6.33-1.912 12.663-.5 19-.241 2.398.426 4.398 2 6 3.311 8.181 8.144 15.514 14.5 22 1.153 3.255 1.987 6.588 2.5 10 .065 2.928.732 5.595 2 8 1.05 4.587 2.883 8.921 5.5 13 3.367 3.703 7.034 7.036 11 10 13.556 20.888 27.889 41.221 43 61 .26 2.118 1.26 3.784 3 5 .495 1.973.662 3.973.5 6-1.487 4.666-3.32 9.332-5.5 14-3.082 3.159-5.416 6.825-7 11-2 5.333-4 10.667-6 16-1 6.333-2 12.667-3 19-.787 4.871-2.621 9.205-5.5 13-.333-1-1-1.667-2-2 2.58-12.649 5.413-25.315 8.5-38 3.188-8.874 7.522-17.207 13-25 1.617-3.539 2.283-7.206 2-11-10.596-14.211-20.929-28.544-31-43-4.055-6.216-7.888-12.55-11.5-19-7.903-6.389-14.069-14.056-18.5-23-1.346-13.07-6.346-24.403-15-34-4.824-7.99-7.657-16.656-8.5-26-.196-8.507 2.971-15.507 9.5-21 1.876-5.894 3.543-11.894 5-18 7.544-13.417 14.21-27.084 20-41 1.842-15.592 3.508-31.259 5-47 9.042-16.452 14.376-34.118 16-53 .383-.556.883-.889 1.5-1z" fill="#ededed" opacity=".054"/><path d="m315.5 377.5c1.54 2.338 2.206 5.005 2 8-1.268-2.405-1.935-5.072-2-8z" fill="#8f8f8f" opacity=".392"/><path d="m719.5 452.5c-5.395.233-10.728-.1-16-1-5.635-18.533 1.032-25.7 20-21.5 2.087.792 3.921 1.959 5.5 3.5.667 4.667.667 9.333 0 14-.833.833-1.667 1.667-2.5 2.5-2.651.153-4.984.987-7 2.5z" fill="#f4f4f4"/><path d="m355.5 159.5c.706 7.176-.794 13.843-4.5 20-.333 3-.667 6-1 9-1.99 7.474-5.157 14.308-9.5 20.5-2.21 15.428-3.71 30.928-4.5 46.5-4.542 11.021-9.709 21.687-15.5 32-1.887 2.289-3.221 4.955-4 8-.838.342-1.172 1.008-1 2-1.54 2.338-2.206 5.005-2 8-1.072 8.242-4.905 14.909-11.5 20-.164 9.993 2.503 19.327 8 28 8.797 9.555 13.797 20.888 15 34 1.167 2.333 2.333 4.667 3.5 7 5.324 4.491 10.157 9.491 14.5 15 4.011 8.027 9.011 15.36 15 22 8.587 12.841 17.42 25.508 26.5 38 .682-.743 1.349-1.409 2-2 .157 1.373-.01 2.707-.5 4-.333-.333-.667-.667-1-1-2.632 2.921-4.132 6.255-4.5 10 .162-2.027-.005-4.027-.5-6-1.74-1.216-2.74-2.882-3-5-15.111-19.779-29.444-40.112-43-61-3.966-2.964-7.633-6.297-11-10-2.617-4.079-4.45-8.413-5.5-13 .206-2.995-.46-5.662-2-8-.513-3.412-1.347-6.745-2.5-10-6.356-6.486-11.189-13.819-14.5-22 .241-2.398-.426-4.398-2-6-1.412-6.337-1.246-12.67.5-19 2.892-2.771 5.558-5.771 8-9 1.37-7.188 3.37-14.188 6-21 6.565-11.352 12.565-23.019 18-35 1.994-14.914 3.327-29.914 4-45 1.153-2.856 1.986-5.856 2.5-9 2.592-1.304 4.425-3.304 5.5-6 2.944-12.834 6.11-25.501 9.5-38 1.325 1.453 2.158 1.119 2.5-1 .377 1.442 1.21 2.442 2.5 3z" fill="#131313" opacity=".941"/><path d="m534.5 440.5c3.072-.317 6.072.016 9 1 2.972 2.468 6.306 4.302 10 5.5 4.898 8.996 3.565 16.996-4 24-5.449.896-10.782.563-16-1-2.803-4.146-5.637-8.312-8.5-12.5-.652-3.094-.318-6.094 1-9 1.717-1.488 2.884-3.321 3.5-5.5 1.815-.757 3.481-1.59 5-2.5z" fill="#f4f4f4"/><path d="m703.5 451.5c5.272.9 10.605 1.233 16 1-4.816 1.15-9.816 1.316-15 .5-.556-.383-.889-.883-1-1.5z" fill="#555"/><path d="m701.5 589.5c-14.32.77-28.653 1.104-43 1-8.718-.268-17.052-1.934-25-5-2.015-1.424-4.348-2.09-7-2-3.758-.619-7.425-1.619-11-3-1.161-4.295-1.328-8.629-.5-13 .93-5.299 1.597-10.633 2-16 4.576-9.052 10.409-17.052 17.5-24 .395-6.303 3.395-10.803 9-13.5 7-.667 14-.667 21 0 7.167 5.833 14.333 11.667 21.5 17.5 5.227 10.209 10.727 20.209 16.5 30 1.432 3.162 2.099 6.495 2 10-.136 6.293-1.136 12.293-3 18z" fill="#f9f9f9"/><path d="m778.5 515.5c-1.135 12.137-2.135 24.137-3 36-.516-12.273.484-24.273 3-36z" fill="#949494" opacity=".494"/><path d="m766.5 317.5c5.156 7.987 8.989 16.653 11.5 26 1.551 18.343 3.218 36.676 5 55 .933 3.995 2.6 7.662 5 11 .667 28.667.667 57.333 0 86-2.17 11.359-4.504 22.693-7 34-.333 10.333-.667 20.667-1 31-3.735 14.114-6.735 28.447-9 43-.333 29.333-.667 58.667-1 88-1.289 5.827-1.956 11.827-2 18-3.55 14.313-6.883 28.646-10 43-4.298 6.696-6.965 14.029-8 22-3 5-6 10-9 15 .123 4.559-1.211 8.559-4 12-.402 16.481-.069 32.814 1 49-1.807 5.807-5.64 9.641-11.5 11.5-7.371 7.04-15.038 13.706-23 20-7.086 3.14-14.086 6.474-21 10-9.489 1.747-18.823 4.08-28 7-7.416 3.549-15.083 6.216-23 8-7.012 3.669-14.012 7.335-21 11-4.667.667-9.333.667-14 0-3.138-1.244-6.472-1.911-10-2-7.992-3.906-16.326-6.906-25-9-3.667-.333-7.333-.667-11-1-14.484-4.288-29.151-7.954-44-11-6.333-.333-12.667-.667-19-1-7.445-2.382-15.112-4.048-23-5-6.836-.039-13.503-.706-20-2-16.11-.821-32.11-.488-48 1-2.333-1-4.667-2-7-3-27.562-5.899-55.229-11.899-83-18-10.149-4.572-19.816-9.905-29-16-1.167-1.833-2.333-3.667-3.5-5.5-6.084-6.421-12.417-12.421-19-18-4.249-6.759-5.582-14.092-4-22 3.226-10.455 7.56-20.455 13-30 5.306-6.644 10.639-13.311 16-20 3.034-4.409 5.7-9.076 8-14 4.187-16.138 10.187-31.471 18-46 1.379-6.849 3.379-13.516 6-20 1.511-14.557 4.178-28.89 8-43 4.07-7.806 8.403-15.473 13-23 4.333-17.004 8.667-34.004 13-51 1.697-2.52 3.53-4.853 5.5-7 1 .333 1.667 1 2 2-2.001 2.668-3.501 5.668-4.5 9-3.945 14.904-7.612 29.904-11 45-5.702 11.021-11.369 22.021-17 33-.231 12.181-1.565 24.181-4 36-1 1.333-2 2.667-3 4-.907 5.444-2.24 10.777-4 16-3.156 6.981-6.323 13.981-9.5 21-2.993 3.715-4.66 8.048-5 13-.047 3.068-.547 6.068-1.5 9-3.221 4.194-5.554 8.86-7 14-3.81 3.804-6.81 8.137-9 13-7.99 6.823-13.823 15.156-17.5 25-1.567 1.181-2.401 2.847-2.5 5-.423-1.456-1.256-1.956-2.5-1.5.897 2.087 1.564 4.254 2 6.5-4.881 9.2-3.714 17.534 3.5 25 8.651 7.484 16.817 15.484 24.5 24 5.802 1.817 11.135 4.483 16 8 2.835 2.285 6.168 3.618 10 4 5.193 1.52 10.526 2.353 16 2.5.828.915 1.828 1.581 3 2 6.885 1.717 13.885 2.717 21 3 5.086 2.418 10.419 3.918 16 4.5 2.015 1.424 4.348 2.09 7 2 2.403-.052 4.736.281 7 1 2.338 1.54 5.005 2.206 8 2 3.358 1.05 6.691 2.05 10 3 18.666-2.571 37.332-2.571 56 0 5.116 1.306 10.449 1.973 16 2 2.461 1.031 5.127 1.698 8 2h2c6.419 1.701 13.085 2.367 20 2 13.275 1.956 26.275 5.122 39 9.5 14.405 1.427 28.072 4.927 41 10.5 1.602 1.574 3.602 2.241 6 2 3.667-.336 7 .497 10 2.5 2.333.667 4.667.667 7 0 9.788-3.935 19.455-8.268 29-13 5.447-1.194 10.781-2.694 16-4.5 2.897-.629 5.564-1.629 8-3 7.563-3.061 15.563-5.228 24-6.5 4.414-2.539 9.081-4.539 14-6 3.49-2.911 7.156-5.578 11-8 7.229-7.738 15.229-14.238 24-19.5 1.466-.847 2.3-2.18 2.5-4 .818-5.849.652-11.515-.5-17-2.159-9.231-2.493-18.564-1-28 1.697-3.765 3.03-7.765 4-12 .657-6.835 3.491-12.502 8.5-17 1.715-5.574 3.048-11.24 4-17 1.7-3.02 3.366-6.02 5-9 3.227-13.697 6.56-27.364 10-41 .866-16.791 1.866-33.458 3-50 .333-22 .667-44 1-66 .505-2.018 1.005-4.018 1.5-6 1.268-2.405 1.935-5.072 2-8 0-.667 0-1.333 0-2 3.426-3.965 4.76-8.631 4-14-.158-3.402.176-6.736 1-10 .865-11.863 1.865-23.863 3-36 2.365-9.251 4.198-18.585 5.5-28 .71-25.346.377-50.679-1-76-1.608-2.882-2.941-5.882-4-9-2.716-13.509-4.216-27.176-4.5-41 .166-5.011-.001-10.011-.5-15-.232-1.237-.732-2.237-1.5-3-.05-6.682-2.383-12.348-7-17-.471-2.079-1.137-4.079-2-6-.107-1.879.393-2.212 1.5-1 .278-.916.778-1.582 1.5-2z" fill="#f1f1f1" opacity=".086"/><path d="m300.5 717.5c-1.234 4.544-2.9 8.877-5 13 .34-4.952 2.007-9.285 5-13z" fill="#626262" opacity=".553"/><path d="m692.5 597.5c2.448-.973 5.115-1.306 8-1 .206 2.995-.46 5.662-2 8 0-2.333 0-4.667 0-7-2 0-4 0-6 0z" fill="#acacac"/><path d="m623.5 589.5c-2.627-.592-5.294-.925-8-1v11c-.983-3.798-1.317-7.798-1-12 3.377-.432 6.377.235 9 2z" fill="#8a8a8a"/><path d="m701.5 589.5c-8.621 1.465-17.454 2.132-26.5 2-5.677-.001-11.177-.334-16.5-1 14.347.104 28.68-.23 43-1z" fill="#808080"/><path d="m623.5 589.5c22.264 7.862 45.264 10.528 69 8h6v7c-4.53 7.06-8.53 14.393-12 22-9.092 6.304-18.925 10.971-29.5 14-24.958-2.458-38.791-16.125-41.5-41 0-3.667 0-7.333 0-11 2.706.075 5.373.408 8 1z" fill="#fafafa"/><path d="m770.5 577.5c-.065 2.928-.732 5.595-2 8-.206-2.995.46-5.662 2-8z" fill="#686868" opacity=".725"/><path d="m626.5 583.5c2.652-.09 4.985.576 7 2-2.652.09-4.985-.576-7-2z" fill="#969696"/><path d="m774.5 561.5c.76 5.369-.574 10.035-4 14 1.404-4.762 2.737-9.429 4-14z" fill="#aaa" opacity=".412"/><path d="m662.5 560.5c2.091-.182 4.091.152 6 1 .922 5.241-1.412 7.407-7 6.5-1.074-.739-1.741-1.739-2-3 .815-1.643 1.815-3.143 3-4.5z" fill="#181818"/><path d="m685.5 559.5h6c.637 5.35-1.697 7.517-7 6.5-1.356-2.414-1.022-4.581 1-6.5z" fill="#1c1c1c"/><path d="m260.5 791.5c-.71 3.525-1.71 6.858-3 10-.436-2.246-1.103-4.413-2-6.5 1.244-.456 2.077.044 2.5 1.5.099-2.153.933-3.819 2.5-5z" fill="#b2b2b2" opacity=".108"/><path d="m735.5 791.5c-.97 4.235-2.303 8.235-4 12-.087-4.542 1.247-8.542 4-12z" fill="#a8a8a8" opacity=".478"/><path d="m732.5 831.5c1.152 5.485 1.318 11.151.5 17-.2 1.82-1.034 3.153-2.5 4 1.784-6.851 2.45-13.851 2-21z" fill="#8d8d8d" opacity=".604"/><path d="m301.5 858.5c2.64.945 5.306 1.112 8 .5-.667.333-1.333.667-2 1 1.566.608 2.9 1.442 4 2.5-3.832-.382-7.165-1.715-10-4z" fill="#3a3a3a" opacity=".835"/><path d="m367.5 874.5c2.652-.09 4.985.576 7 2-2.652.09-4.985-.576-7-2z" fill="#666" opacity=".776"/><path d="m381.5 877.5c2.928.065 5.595.732 8 2-2.995.206-5.662-.46-8-2z" fill="#7a7a7a" opacity=".608"/><path d="m455.5 882.5c5.584-.245 10.917.422 16 2-5.551-.027-10.884-.694-16-2z" fill="#6d6d6d" opacity=".812"/><path d="m471.5 884.5c3.053-.389 5.72.277 8 2-2.873-.302-5.539-.969-8-2z" fill="#949494" opacity=".627"/><path d="m481.5 886.5c6.854.235 13.521.902 20 2-6.915.367-13.581-.299-20-2z" fill="#4a4a4a" opacity=".82"/><path d="m657.5 892.5c-2.436 1.371-5.103 2.371-8 3 2.117-2.155 4.784-3.155 8-3z" fill="#898989" opacity=".573"/><path d="m581.5 908.5c2.398-.241 4.398.426 6 2-2.398.241-4.398-.426-6-2z" fill="#747474" opacity=".6"/></svg>